REM DIRINDEX 1\2,1\3,1\4,1\5
REM DIRNAME cjc093,folder01,folder02,folder03,folder04
TITLE ""
FILE "Round-05-114-115.mp3" MP3
  TRACK 01 AUDIO
    TITLE "0:"
    INDEX 01 00:00:00
  TRACK 02 AUDIO
    TITLE "2:cjc093_1373"
    INDEX 01 00:00:01
  TRACK 03 AUDIO
    TITLE "0:"
    INDEX 01 00:01:03
  TRACK 04 AUDIO
    TITLE "3:cjc093_1374"
    INDEX 01 00:01:40
  TRACK 05 AUDIO
    TITLE "0:"
    INDEX 01 00:02:43
  TRACK 06 AUDIO
    TITLE "4:cjc093_1375"
    INDEX 01 00:02:73
  TRACK 07 AUDIO
    TITLE "0:"
    INDEX 01 00:06:04
  TRACK 08 AUDIO
    TITLE "2:cjc093_1376"
    INDEX 01 00:07:17
  TRACK 09 AUDIO
    TITLE "0:"
    INDEX 01 00:08:15
  TRACK 10 AUDIO
    TITLE "3:cjc093_1377"
    INDEX 01 00:08:50
  TRACK 11 AUDIO
    TITLE "0:"
    INDEX 01 00:09:61
  TRACK 12 AUDIO
    TITLE "4:cjc093_1378"
    INDEX 01 00:10:23
  TRACK 13 AUDIO
    TITLE "0:"
    INDEX 01 00:13:37
  TRACK 14 AUDIO
    TITLE "2:cjc093_1379"
    INDEX 01 00:14:53
  TRACK 15 AUDIO
    TITLE "0:"
    INDEX 01 00:15:54
  TRACK 16 AUDIO
    TITLE "3:cjc093_1380"
    INDEX 01 00:16:14
  TRACK 17 AUDIO
    TITLE "0:"
    INDEX 01 00:18:74
  TRACK 18 AUDIO
    TITLE "4:cjc093_1381"
    INDEX 01 00:19:18
  TRACK 19 AUDIO
    TITLE "0:"
    INDEX 01 00:22:56
  TRACK 20 AUDIO
    TITLE "2:cjc093_1382"
    INDEX 01 00:23:65
  TRACK 21 AUDIO
    TITLE "0:"
    INDEX 01 00:24:67
  TRACK 22 AUDIO
    TITLE "3:cjc093_1383"
    INDEX 01 00:25:35
  TRACK 23 AUDIO
    TITLE "0:"
    INDEX 01 00:27:73
  TRACK 24 AUDIO
    TITLE "4:cjc093_1384"
    INDEX 01 00:28:19
  TRACK 25 AUDIO
    TITLE "0:"
    INDEX 01 00:30:67
  TRACK 26 AUDIO
    TITLE "3:cjc093_1385"
    INDEX 01 00:32:03
  TRACK 27 AUDIO
    TITLE "0:"
    INDEX 01 00:33:17
  TRACK 28 AUDIO
    TITLE "4:cjc093_1386"
    INDEX 01 00:33:52
  TRACK 29 AUDIO
    TITLE "0:"
    INDEX 01 00:35:72
  TRACK 30 AUDIO
    TITLE "2:cjc093_1387"
    INDEX 01 00:37:10
  TRACK 31 AUDIO
    TITLE "0:"
    INDEX 01 00:38:18
  TRACK 32 AUDIO
    TITLE "3:cjc093_1388"
    INDEX 01 00:38:37
  TRACK 33 AUDIO
    TITLE "0:"
    INDEX 01 00:39:58
  TRACK 34 AUDIO
    TITLE "4:cjc093_1389"
    INDEX 01 00:40:13
  TRACK 35 AUDIO
    TITLE "0:"
    INDEX 01 00:42:35
  TRACK 36 AUDIO
    TITLE "3:cjc093_1390"
    INDEX 01 00:43:48
  TRACK 37 AUDIO
    TITLE "0:"
    INDEX 01 00:45:69
  TRACK 38 AUDIO
    TITLE "4:cjc093_1391"
    INDEX 01 00:46:19
  TRACK 39 AUDIO
    TITLE "0:"
    INDEX 01 00:49:16
  TRACK 40 AUDIO
    TITLE "2:cjc093_1392"
    INDEX 01 00:50:25
  TRACK 41 AUDIO
    TITLE "0:"
    INDEX 01 00:51:36
  TRACK 42 AUDIO
    TITLE "3:cjc093_1393"
    INDEX 01 00:51:65
  TRACK 43 AUDIO
    TITLE "0:"
    INDEX 01 00:53:13
  TRACK 44 AUDIO
    TITLE "4:cjc093_1394"
    INDEX 01 00:53:62
  TRACK 45 AUDIO
    TITLE "0:"
    INDEX 01 00:59:55
  TRACK 46 AUDIO
    TITLE "2:cjc093_1395"
    INDEX 01 01:00:66
  TRACK 47 AUDIO
    TITLE "0:"
    INDEX 01 01:01:70
  TRACK 48 AUDIO
    TITLE "3:cjc093_1396"
    INDEX 01 01:02:44
  TRACK 49 AUDIO
    TITLE "0:"
    INDEX 01 01:03:65
  TRACK 50 AUDIO
    TITLE "4:cjc093_1397"
    INDEX 01 01:04:39
  TRACK 51 AUDIO
    TITLE "0:"
    INDEX 01 01:07:27
  TRACK 52 AUDIO
    TITLE "3:cjc093_1398"
    INDEX 01 01:08:40
  TRACK 53 AUDIO
    TITLE "0:"
    INDEX 01 01:09:46
  TRACK 54 AUDIO
    TITLE "4:cjc093_1399"
    INDEX 01 01:10:35
  TRACK 55 AUDIO
    TITLE "0:"
    INDEX 01 01:13:28
  TRACK 56 AUDIO
    TITLE "3:cjc093_1400"
    INDEX 01 01:14:41
  TRACK 57 AUDIO
    TITLE "0:"
    INDEX 01 01:16:11
  TRACK 58 AUDIO
    TITLE "4:cjc093_1401"
    INDEX 01 01:16:46
  TRACK 59 AUDIO
    TITLE "0:"
    INDEX 01 01:18:54
